# xmcd CD database file
#
# Track frame offsets:
#	150
#	4363
#	61792
#	96446
#	138445
#	205079
#	241030
#
# Disc length: 4147 seconds
#
# Revision: 2
# Processed by: cddbd v1.5.2PL0 Copyright (c) Steve Scherf et al.
# Submitted via: CDex 1.51
#
DISCID=57103107
DTITLE=Moe. - Warts and All Vol. 5 (Live on February 22, 2005 at The Val Air Ballroom In Des Moines, Iowa.) (Disc-1)
DYEAR=2007
DGENRE=Rock
TTITLE0=Intro
TTITLE1=Bring You Down
TTITLE2=Shoot First
TTITLE3=Captain America
TTITLE4=She
TTITLE5=Y.O.Y.
TTITLE6=George
EXTD=Recorded Live on Feb 22, 2005 at the Val Air Ballroom in Des Moines, Iowa YEAR: 2007
EXTT0=
EXTT1=
EXTT2=
EXTT3=
EXTT4=
EXTT5=
EXTT6=
PLAYORDER=
